<svg xmlns="http://www.w3.org/2000/svg" viewBox="0 0 175.1 198.3">
  <title>Logo</title>
  <path d="M105.9,83.2c-5.7,0-10.2,4.9-10.2,11s4.6,11,10.2,11,10.2-4.9,10.2-11S111.5,83.2,105.9,83.2Zm-36.5,0c-5.7,0-10.2,4.9-10.2,11s4.6,11,10.2,11,10.2-4.9,10.2-11S75.1,83.2,69.4,83.2Z"/>
  <path d="M154.5,0H20.5A20.54,20.54,0,0,0,0,20.5v134A20.54,20.54,0,0,0,20.5,175H133.9l-5.3-18.3,12.8,11.8,12.1,11.1,21.6,18.7V20.5A20.68,20.68,0,0,0,154.5,0ZM115.9,129.5s-3.6-4.3-6.6-8c13.1-3.7,18.1-11.8,18.1-11.8a57.83,57.83,0,0,1-11.5,5.9,71.91,71.91,0,0,1-14.5,4.3,70,70,0,0,1-25.9-.1,76.7,76.7,0,0,1-14.7-4.3,57.6,57.6,0,0,1-7.3-3.4c-.3-.2-.6-.3-.9-.5s-.3-.2-.4-.2c-1.8-1-2.8-1.7-2.8-1.7s4.8,7.9,17.5,11.7c-3,3.8-6.7,8.2-6.7,8.2-22.1-.7-30.5-15.1-30.5-15.1,0-31.9,14.4-57.8,14.4-57.8,14.4-10.7,28-10.4,28-10.4l1,1.2c-18,5.1-26.2,13-26.2,13s2.2-1.2,5.9-2.8a78.33,78.33,0,0,1,22.7-6.3,9.74,9.74,0,0,1,1.7-.2A84.78,84.78,0,0,1,97.4,51a83.18,83.18,0,0,1,30.1,9.5s-7.9-7.5-24.9-12.6l1.4-1.6s13.7-.3,28,10.4c0,0,14.4,25.9,14.4,57.8C146.4,114.4,138,128.8,115.9,129.5Z"/>
</svg>
