<svg viewBox="0 0 725.6 198.3">
			<path
				d="M142.8,120.1c-5.7,0-10.2,4.9-10.2,11s4.6,11,10.2,11,10.2-4.9,10.2-11S148.4,120.1,142.8,120.1Zm-36.5,0c-5.7,0-10.2,4.9-10.2,11s4.6,11,10.2,11,10.2-4.9,10.2-11S112,120.1,106.3,120.1Z"
				transform="translate(-36.9 -36.9)"
			/>
			<path
				d="M191.4,36.9H57.4A20.53,20.53,0,0,0,36.9,57.4v134a20.53,20.53,0,0,0,20.5,20.5H170.8l-5.3-18.3,12.8,11.8,12.1,11.1L212,235.2V57.4A20.68,20.68,0,0,0,191.4,36.9ZM152.8,166.4s-3.6-4.3-6.6-8c13.1-3.7,18.1-11.8,18.1-11.8a57.22,57.22,0,0,1-11.5,5.9,71.71,71.71,0,0,1-14.5,4.3,70.05,70.05,0,0,1-25.9-.1,76.13,76.13,0,0,1-14.7-4.3,58.6,58.6,0,0,1-7.3-3.4c-.3-.2-.6-.3-.9-.5s-.3-.2-.4-.2c-1.8-1-2.8-1.7-2.8-1.7s4.8,7.9,17.5,11.7c-3,3.8-6.7,8.2-6.7,8.2-22.1-.7-30.5-15.1-30.5-15.1C66.6,119.5,81,93.6,81,93.6c14.4-10.7,28-10.4,28-10.4l1,1.2c-18,5.1-26.2,13-26.2,13s2.2-1.2,5.9-2.8a78.35,78.35,0,0,1,22.7-6.3,9.85,9.85,0,0,1,1.7-.2,84.61,84.61,0,0,1,20.2-.2,83.13,83.13,0,0,1,30.1,9.5s-7.9-7.5-24.9-12.6l1.4-1.6s13.7-.3,28,10.4c0,0,14.4,25.9,14.4,57.8,0-.1-8.4,14.3-30.5,15Zm151-86.7H270.6V117l22.1,19.9V100.7h11.8c7.5,0,11.2,3.6,11.2,9.4v27.7c0,5.8-3.5,9.7-11.2,9.7h-34v21.1h33.2c17.8.1,34.5-8.8,34.5-29.2V109.6C338.3,88.8,321.6,79.7,303.8,79.7Zm174,59.7V108.8c0-11,19.8-13.5,25.8-2.5l18.3-7.4c-7.2-15.8-20.3-20.4-31.2-20.4-17.8,0-35.4,10.3-35.4,30.3v30.6c0,20.2,17.6,30.3,35,30.3a35.71,35.71,0,0,0,32-19.9l-19.6-9c-4.8,12.3-24.9,9.3-24.9-1.4ZM417.3,113c-6.9-1.5-11.5-4-11.8-8.3.4-10.3,16.3-10.7,25.6-.8l14.7-11.3c-9.2-11.2-19.6-14.2-30.3-14.2-16.3,0-32.1,9.2-32.1,26.6,0,16.9,13,26,27.3,28.2,7.3,1,15.4,3.9,15.2,8.9-.6,9.5-20.2,9-29.1-1.8l-14.2,13.3c8.3,10.7,19.6,16.1,30.2,16.1,16.3,0,34.4-9.4,35.1-26.6,1-21.7-14.8-27.2-30.6-30.1Zm-67,55.5h22.4V79.7H350.3ZM728,79.7H694.8V117l22.1,19.9V100.7h11.8c7.5,0,11.2,3.6,11.2,9.4v27.7c0,5.8-3.5,9.7-11.2,9.7h-34v21.1H728c17.8.1,34.5-8.8,34.5-29.2V109.6C762.5,88.8,745.8,79.7,728,79.7ZM565.1,78.5c-18.4,0-36.7,10-36.7,30.5v30.3c0,20.3,18.4,30.5,36.9,30.5S602,159.6,602,139.3V109C602,88.6,583.5,78.5,565.1,78.5Zm14.4,60.8c0,6.4-7.2,9.7-14.3,9.7s-14.4-3.1-14.4-9.7V109c0-6.5,7-10,14-10,7.3,0,14.7,3.1,14.7,10ZM682.4,109c-.5-20.8-14.7-29.2-33-29.2H613.9v88.8h22.7V140.4h4l20.6,28.2h28L665,138.1C675.7,134.7,682.4,125.4,682.4,109Zm-32.6,12H636.6V100.7h13.2C663.9,100.7,663.9,121,649.8,121Z"
				transform="translate(-36.9 -36.9)"
			/>
		</svg>